<mxfile host="app.diagrams.net" modified="2022-09-28T10:24:50.824Z" agent="5.0 (Windows NT 10.0; Win64; x64) AppleWebKit/537.36 (KHTML, like Gecko) Chrome/105.0.0.0 Safari/537.36 Edg/105.0.1343.50" etag="cri30bmrDA6EZf84NYde" version="20.3.6" type="github">
  <diagram id="sQ_ULxxS_rcZoh59_iK4" name="第 1 页">
    <mxGraphModel dx="1357" dy="802" grid="1" gridSize="10" guides="1" tooltips="1" connect="1" arrows="1" fold="1" page="1" pageScale="1" pageWidth="827" pageHeight="1169" math="0" shadow="0">
      <root>
        <mxCell id="0" />
        <mxCell id="1" parent="0" />
        <mxCell id="iXL8BwB4Hhvay0VVw7ke-7" style="edgeStyle=orthogonalEdgeStyle;rounded=0;orthogonalLoop=1;jettySize=auto;html=1;entryX=0.5;entryY=0;entryDx=0;entryDy=0;" edge="1" parent="1" source="iXL8BwB4Hhvay0VVw7ke-1" target="iXL8BwB4Hhvay0VVw7ke-2">
          <mxGeometry relative="1" as="geometry" />
        </mxCell>
        <mxCell id="iXL8BwB4Hhvay0VVw7ke-11" value="否" style="edgeLabel;html=1;align=center;verticalAlign=middle;resizable=0;points=[];" vertex="1" connectable="0" parent="iXL8BwB4Hhvay0VVw7ke-7">
          <mxGeometry x="0.0333" y="1" relative="1" as="geometry">
            <mxPoint as="offset" />
          </mxGeometry>
        </mxCell>
        <mxCell id="iXL8BwB4Hhvay0VVw7ke-9" value="是" style="edgeStyle=orthogonalEdgeStyle;rounded=0;orthogonalLoop=1;jettySize=auto;html=1;exitX=0.5;exitY=1;exitDx=0;exitDy=0;entryX=0.5;entryY=0;entryDx=0;entryDy=0;" edge="1" parent="1" source="iXL8BwB4Hhvay0VVw7ke-1" target="iXL8BwB4Hhvay0VVw7ke-8">
          <mxGeometry relative="1" as="geometry" />
        </mxCell>
        <mxCell id="iXL8BwB4Hhvay0VVw7ke-1" value="拨号，返回错误" style="rhombus;whiteSpace=wrap;html=1;" vertex="1" parent="1">
          <mxGeometry x="140" y="170" width="120" height="50" as="geometry" />
        </mxCell>
        <mxCell id="iXL8BwB4Hhvay0VVw7ke-3" style="edgeStyle=orthogonalEdgeStyle;rounded=0;orthogonalLoop=1;jettySize=auto;html=1;entryX=0;entryY=0.5;entryDx=0;entryDy=0;" edge="1" parent="1" source="iXL8BwB4Hhvay0VVw7ke-2" target="iXL8BwB4Hhvay0VVw7ke-1">
          <mxGeometry relative="1" as="geometry" />
        </mxCell>
        <mxCell id="iXL8BwB4Hhvay0VVw7ke-5" value="是" style="edgeLabel;html=1;align=center;verticalAlign=middle;resizable=0;points=[];" vertex="1" connectable="0" parent="iXL8BwB4Hhvay0VVw7ke-3">
          <mxGeometry x="0.008" y="-2" relative="1" as="geometry">
            <mxPoint as="offset" />
          </mxGeometry>
        </mxCell>
        <mxCell id="iXL8BwB4Hhvay0VVw7ke-13" value="" style="edgeStyle=orthogonalEdgeStyle;rounded=0;orthogonalLoop=1;jettySize=auto;html=1;" edge="1" parent="1" source="iXL8BwB4Hhvay0VVw7ke-2" target="iXL8BwB4Hhvay0VVw7ke-12">
          <mxGeometry relative="1" as="geometry" />
        </mxCell>
        <mxCell id="iXL8BwB4Hhvay0VVw7ke-2" value="读取数据，返回错误" style="rhombus;whiteSpace=wrap;html=1;" vertex="1" parent="1">
          <mxGeometry x="270" y="360" width="130" height="60" as="geometry" />
        </mxCell>
        <mxCell id="iXL8BwB4Hhvay0VVw7ke-10" style="edgeStyle=orthogonalEdgeStyle;rounded=0;orthogonalLoop=1;jettySize=auto;html=1;entryX=0;entryY=0.5;entryDx=0;entryDy=0;" edge="1" parent="1" source="iXL8BwB4Hhvay0VVw7ke-8" target="iXL8BwB4Hhvay0VVw7ke-1">
          <mxGeometry relative="1" as="geometry">
            <Array as="points">
              <mxPoint x="120" y="335" />
              <mxPoint x="120" y="195" />
            </Array>
          </mxGeometry>
        </mxCell>
        <mxCell id="iXL8BwB4Hhvay0VVw7ke-8" value="休眠" style="whiteSpace=wrap;html=1;" vertex="1" parent="1">
          <mxGeometry x="145" y="320" width="110" height="30" as="geometry" />
        </mxCell>
        <mxCell id="iXL8BwB4Hhvay0VVw7ke-15" value="" style="edgeStyle=orthogonalEdgeStyle;rounded=0;orthogonalLoop=1;jettySize=auto;html=1;" edge="1" parent="1" source="iXL8BwB4Hhvay0VVw7ke-12" target="iXL8BwB4Hhvay0VVw7ke-14">
          <mxGeometry relative="1" as="geometry" />
        </mxCell>
        <mxCell id="iXL8BwB4Hhvay0VVw7ke-12" value="解析数据：action、payload" style="whiteSpace=wrap;html=1;" vertex="1" parent="1">
          <mxGeometry x="260" y="460" width="150" height="40" as="geometry" />
        </mxCell>
        <mxCell id="iXL8BwB4Hhvay0VVw7ke-17" style="edgeStyle=orthogonalEdgeStyle;rounded=0;orthogonalLoop=1;jettySize=auto;html=1;entryX=1;entryY=0.5;entryDx=0;entryDy=0;exitX=1;exitY=0.5;exitDx=0;exitDy=0;" edge="1" parent="1" source="iXL8BwB4Hhvay0VVw7ke-14" target="iXL8BwB4Hhvay0VVw7ke-2">
          <mxGeometry relative="1" as="geometry">
            <Array as="points">
              <mxPoint x="450" y="600" />
              <mxPoint x="450" y="390" />
            </Array>
          </mxGeometry>
        </mxCell>
        <mxCell id="iXL8BwB4Hhvay0VVw7ke-14" value="" style="rounded=0;whiteSpace=wrap;html=1;" vertex="1" parent="1">
          <mxGeometry x="275" y="560" width="120" height="60" as="geometry" />
        </mxCell>
      </root>
    </mxGraphModel>
  </diagram>
</mxfile>
